<svg xmlns="http://www.w3.org/2000/svg" height="69.09" width="250" viewBox="0 0 250 69.089562">
 <g transform="matrix(.85775 0 0 .85775 2.0487 1.1197)">
  <g fill="#183863">
   <path d="m224.37 50.739c-2.3668 0-4.4347 0.4642-6.2031 1.3926-1.7676 0.92919-3.1351 2.1754-4.1016 3.7402-0.9673 1.5649-1.4902 3.3011-1.5664 5.209-0.0511 1.5778-0.0762 2.8379-0.0762 3.7793 0 0.78892 0.0251 1.7926 0.0762 3.0137 0.10136 1.9078 0.63621 3.6441 1.6035 5.209 0.96648 1.5649 2.3278 2.8119 4.084 3.7402 1.7554 0.92919 3.8168 1.3926 6.1836 1.3926 2.1876 0 4.1838-0.41863 5.9902-1.2578 1.8065-0.84 3.2381-1.9784 4.293-3.416 1.0557-1.4376 1.5972-3.0086 1.623-4.7129 0-0.22946-0.0826-0.42558-0.24805-0.5918-0.1654-0.1646-0.36233-0.24805-0.59179-0.24805h-5c-0.40703 0-0.68742 0.07527-0.83985 0.22852-0.15324 0.15243-0.3054 0.44479-0.45703 0.87695-0.28054 0.84-0.7636 1.5521-1.4512 2.1367-0.68675 0.5854-1.7916 0.87891-3.3184 0.87891-1.6038 0-2.7804-0.40665-3.5312-1.2207-0.75081-0.81405-1.1779-1.8838-1.2793-3.207-0.0511-0.91622-0.0762-1.984-0.0762-3.2051 0-1.2722 0.0251-2.3399 0.0762-3.2051 0.10136-1.3224 0.52849-2.3922 1.2793-3.207 0.75081-0.81405 1.9275-1.2207 3.5312-1.2207 1.5268 0 2.6316 0.2935 3.3184 0.87891 0.68757 0.58541 1.1706 1.2967 1.4512 2.1367 0.15163 0.43216 0.30379 0.72452 0.45703 0.87695 0.15243 0.15325 0.43282 0.22852 0.83985 0.22852h5c0.22946 0 0.42639-0.08264 0.59179-0.24805 0.16541-0.1654 0.24805-0.36234 0.24805-0.5918-0.0259-1.7043-0.56738-3.2753-1.623-4.7129-1.0549-1.4368-2.4865-2.576-4.293-3.416-1.8065-0.83919-3.8027-1.2578-5.9902-1.2578zm30.873 0c-2.1373 0-4.0258 0.375-5.666 1.125-1.6419 0.75081-2.9086 1.7564-3.7988 3.0156-0.89108 1.2592-1.3359 2.6259-1.3359 4.1016 0 2.1884 0.61014 3.9378 1.832 5.248 1.2211 1.3111 3.13 2.2452 5.7246 2.8047l1.7168 0.34375c1.7805 0.38189 3.0797 0.67539 3.8945 0.87891 0.81406 0.20351 1.4435 0.45144 1.8887 0.74414 0.44514 0.2927 0.66797 0.65378 0.66797 1.0859 0 1.3492-1.5776 2.0234-4.7324 2.0234-0.91541 0-1.711-0.14756-2.3848-0.43945-0.67459-0.2927-1.177-0.62246-1.5078-0.99219-0.33081-0.36811-0.53513-0.59175-0.61133-0.66797-0.40621-0.35595-0.8909-0.5332-1.4512-0.5332h-4.998c-0.20352 0-0.38928 0.08264-0.55469 0.24805-0.16541 0.1654-0.24805 0.36234-0.24805 0.5918 0.0511 1.2973 0.58595 2.5563 1.6035 3.7773 1.0176 1.2219 2.4167 2.2128 4.1973 2.9766 1.7814 0.76297 3.7667 1.1445 5.9551 1.1445 2.2646 0 4.2924-0.33794 6.0859-1.0117 1.7935-0.67379 3.1938-1.6412 4.1992-2.9004 1.0046-1.2592 1.5078-2.7271 1.5078-4.4062 0-2.3149-0.67505-4.0967-2.0234-5.3438-1.3484-1.2462-3.4596-2.1626-6.334-2.748-2.2395-0.45811-3.8124-0.80179-4.7148-1.0312-0.90324-0.22865-1.5709-0.48774-2.0039-0.78125-0.43298-0.29189-0.64844-0.69198-0.64844-1.2012 0-0.7127 0.3491-1.2143 1.0488-1.5078 0.70054-0.29189 1.5968-0.43945 2.6914-0.43945 0.78892 0 1.4825 0.1151 2.0801 0.34375 0.59837 0.22865 1.0367 0.4905 1.3164 0.7832 0.27973 0.2927 0.44615 0.46259 0.49805 0.51367 0.25297 0.22946 0.48203 0.38818 0.68555 0.47656 0.20351 0.09 0.48308 0.13477 0.83984 0.13477h5c0.2027 0 0.38732-0.08183 0.55273-0.24805 0.16542-0.16459 0.24805-0.36315 0.24805-0.5918-0.0519-1.1197-0.56741-2.2647-1.5469-3.4355-0.98027-1.17-2.3219-2.142-4.0254-2.918-1.7051-0.77595-3.5874-1.1641-5.6484-1.1641zm-227 0.381c-0.45729 0-0.82769 0.12166-1.1074 0.36328-0.28054 0.24162-0.48289 0.54054-0.60937 0.89648l-8.3203 24.043c-0.10213 0.25459-0.15234 0.44578-0.15234 0.57226 0 0.22946 0.08184 0.4264 0.24805 0.5918 0.16541 0.16622 0.36316 0.24805 0.59179 0.24805h4.8086c0.43217 0 0.76929-0.0966 1.0117-0.28711 0.24082-0.19054 0.40036-0.41337 0.47656-0.66797l1.0684-3.166h10.15l1.0703 3.166c0.07541 0.2546 0.23413 0.47743 0.47656 0.66797 0.24082 0.19055 0.57875 0.28711 1.0117 0.28711h4.8066c0.23027 0 0.42639-0.0818 0.5918-0.24805 0.16541-0.1654 0.24805-0.36234 0.24805-0.5918 0-0.12648-0.05099-0.31767-0.15235-0.57226l-8.3184-24.043c-0.1281-0.35595-0.33078-0.65486-0.61132-0.89648-0.27973-0.24162-0.64932-0.36328-1.1074-0.36328h-6.1816zm20.691 0c-0.28054 0-0.52109 0.10117-0.72461 0.30469-0.20351 0.20432-0.30469 0.44683-0.30469 0.72656v4.0449c0 0.28054 0.10118 0.52191 0.30469 0.72461 0.20352 0.20432 0.44407 0.30469 0.72461 0.30469h6.7168v19.578c0 0.28054 0.10231 0.52305 0.30664 0.72656 0.2027 0.20351 0.44488 0.30469 0.72461 0.30469h4.998c0.28054 0 0.52305-0.10118 0.72657-0.30469 0.20351-0.20351 0.30468-0.44602 0.30468-0.72656v-19.578h6.7168c0.27973 0 0.52223-0.10036 0.72656-0.30469 0.2027-0.2027 0.30469-0.44407 0.30469-0.72461v-4.0449c0-0.27973-0.10199-0.52224-0.30469-0.72656-0.20433-0.20351-0.44683-0.30469-0.72656-0.30469h-20.494zm30.502 0c-0.28054 0-0.52304 0.10117-0.72656 0.30469-0.20432 0.20432-0.30469 0.44683-0.30469 0.72656v24.652c0 0.30567 0.10037 0.5536 0.30469 0.74414 0.20352 0.19055 0.44602 0.28711 0.72656 0.28711h5c0.27973 0 0.51915-0.10118 0.72266-0.30469 0.20352-0.20351 0.30664-0.44602 0.30664-0.72656v-9.3496h8.4727v9.3496c0 0.28054 0.10117 0.52305 0.30468 0.72656 0.20271 0.20351 0.44407 0.30469 0.72461 0.30469h5c0.28054 0 0.5211-0.10118 0.72461-0.30469 0.20352-0.20351 0.30664-0.44602 0.30664-0.72656v-24.652c0-0.27973-0.10312-0.52224-0.30664-0.72656-0.20351-0.20351-0.44407-0.30469-0.72461-0.30469h-5c-0.28054 0-0.5219 0.10117-0.72461 0.30469-0.20351 0.20432-0.30468 0.44683-0.30468 0.72656v9.1973h-8.4727v-9.1973c0-0.27973-0.10312-0.52224-0.30664-0.72656-0.20351-0.20351-0.44293-0.30469-0.72266-0.30469h-5zm32.432 0c-0.28054 0-0.52304 0.10117-0.72656 0.30469-0.20432 0.20432-0.30469 0.44683-0.30469 0.72656v24.652c0 0.28054 0.10037 0.52305 0.30469 0.72656 0.20352 0.20351 0.44602 0.30469 0.72656 0.30469h17.67c0.27973 0 0.5211-0.10118 0.72461-0.30469 0.20352-0.20351 0.30468-0.44602 0.30468-0.72656v-4.0449c0-0.27973-0.10116-0.5211-0.30468-0.72461-0.20351-0.20351-0.44488-0.30469-0.72461-0.30469h-11.641v-19.578c0-0.27973-0.10312-0.52224-0.30664-0.72656-0.20351-0.20351-0.44293-0.30469-0.72266-0.30469h-5zm27.604 0c-0.28054 0-0.5211 0.10117-0.72461 0.30469-0.20433 0.20432-0.30664 0.44683-0.30664 0.72656v24.652c0 0.28054 0.10231 0.52305 0.30664 0.72656 0.20351 0.20351 0.44407 0.30469 0.72461 0.30469h18.09c0.27973 0 0.52109-0.10118 0.72461-0.30469 0.20351-0.20351 0.30469-0.44602 0.30469-0.72656v-4.0449c0-0.27973-0.10118-0.5211-0.30469-0.72461-0.20352-0.20351-0.44488-0.30469-0.72461-0.30469h-12.061v-4.2754h10.916c0.27973 0 0.52029-0.10117 0.72461-0.30469 0.20271-0.20351 0.30469-0.44602 0.30469-0.72656v-4.0449c0-0.27973-0.10198-0.52029-0.30469-0.72461-0.20432-0.20351-0.44488-0.30469-0.72461-0.30469h-10.916v-4.123h11.754c0.27973 0 0.52225-0.10036 0.72657-0.30469 0.20352-0.2027 0.30468-0.44407 0.30468-0.72461v-4.0449c0-0.27973-0.10116-0.52224-0.30468-0.72656-0.20432-0.20351-0.44684-0.30469-0.72657-0.30469h-17.783zm27.504 0c-0.28054 0-0.52109 0.10117-0.72461 0.30469-0.20432 0.20432-0.30664 0.44683-0.30664 0.72656v4.0449c0 0.28054 0.10232 0.52191 0.30664 0.72461 0.20352 0.20432 0.44407 0.30469 0.72461 0.30469h6.7168v19.578c0 0.28054 0.10118 0.52305 0.30469 0.72656s0.44682 0.30469 0.72656 0.30469h4.998c0.27973 0 0.52224-0.10118 0.72656-0.30469 0.20351-0.20351 0.30469-0.44602 0.30469-0.72656v-19.578h6.7168c0.28054 0 0.52109-0.10036 0.72461-0.30469 0.20351-0.2027 0.30664-0.44407 0.30664-0.72461v-4.0449c0-0.27973-0.10313-0.52224-0.30664-0.72656-0.20352-0.20351-0.44407-0.30469-0.72461-0.30469h-20.494zm30.502 0c-0.28054 0-0.52304 0.10117-0.72656 0.30469-0.20351 0.20432-0.30469 0.44683-0.30469 0.72656v24.652c0 0.28054 0.10118 0.52305 0.30469 0.72656 0.20352 0.20351 0.44602 0.30469 0.72656 0.30469h4.998c0.27973 0 0.52029-0.10118 0.72461-0.30469 0.20352-0.20351 0.30468-0.44602 0.30468-0.72656v-24.652c0-0.27973-0.10116-0.52224-0.30468-0.72656-0.20432-0.20351-0.44488-0.30469-0.72461-0.30469h-4.998zm-166.14 7.5176 3.0898 9.1602h-6.1816l3.0918-9.1602z"/>
   <polyline transform="matrix(0 1 -4.8954 0 290.07 -240.32)" points="280.03 59.531 279.66 50.303 279.47 40.844 279.38 30.006 279.47 19.157 279.66 9.6989 280.03 0.46946 280.19 0.46946 280.55 9.6973 280.75 19.156 280.84 29.999 280.75 40.843 280.55 50.301 280.19 59.531 280.03 59.531"/>
   <path d="m18.459 0c-3.6665 0-6.1309 2.5598-6.1309 6.373v16.758c0 3.8724 2.4068 6.373 6.1309 6.373h14.268v-12.098h-8.2949v4.7754h-2.7148v-14.9h2.7148v3.3613h8.2949v-10.642h-14.268zm31.365 0c-3.666 0-6.131 2.5598-6.131 6.373v16.758c0 3.8724 2.4076 6.373 6.1309 6.373h9.0273c3.6665 0 6.1309-2.5614 6.1309-6.373v-16.758c0-3.8724-2.406-6.373-6.13-6.373h-9.0273zm25.967 0v7.2812h2.2676v14.9h-2.2676v7.3223h22.584v-12.381h-8.6992v5.0586h-2.3516v-14.9h2.3066v-7.2812h-13.84zm32.008 0v7.2812h2.2676v15.85c0 3.8724 2.3901 6.373 6.0898 6.373h9.1484c3.724 0 6.1309-2.5006 6.1309-6.373v-15.85h2.2266v-7.2812h-11.613v22.182h-2.5957v-22.182h-11.654zm36.535 0v7.2812h2.2656v14.9h-2.2656v7.3223h10.844v-13.076l6.1426 10.502 5.9648-10.447v13.021h11.289v-7.3223h-2.2676v-14.9h2.2676v-7.2812h-10.471l-6.44 11.549-6.79-11.549h-10.54zm44.932 0v7.2812h2.2656v14.9h-2.2656v7.3223h17.869c3.724 0 6.1309-2.5006 6.1309-6.373v-4.8984c0-2.2086-0.98716-3.3624-2.3574-4.041 1.5657-0.7573 2.3574-2.0741 2.3574-3.9316v-3.8867c0-3.8717-2.41-6.3723-6.14-6.3723h-17.869zm34.828 0v7.2812h2.2676v14.9h-2.2676v7.3223h13.881v-7.3223h-2.2656v-14.9h2.2656v-7.2812h-13.881zm30.914 0-4.25 22.182h-2.2695v7.3223h10.682l0.84961-6.8398h3.4922l0.89062 6.8398h10.84v-7.3223h-2.1055l-4.2-22.182h-13.92zm-201.93 7.2812h2.5137v14.9h-2.5137v-14.9zm147.8 0h2.959v3.7285h-2.959v-3.7285zm60.939 2.6035 0.99805 6.2246h-2.0215l1.0234-6.2246zm-60.939 7.7188h2.959v4.5781h-2.959v-4.5781z"/>
  </g>
  <path d="m18.459 1.4121c-2.91 0-4.7188 1.9001-4.7188 4.9609v16.758c0 3.1062 1.7642 4.9609 4.7188 4.9609h12.855v-9.2734h-5.4688v4.7773h-5.543v-17.727h5.543v3.3613h5.4688v-7.8184h-12.855zm31.365 0c-2.91 0-4.7168 1.9001-4.7168 4.9609v16.758c0 3.1062 1.763 4.9609 4.7168 4.9609h9.0273c2.91 0 4.7188-1.9017 4.7188-4.9609v-16.758c0-3.0608-1.8088-4.9609-4.7188-4.9609h-9.0273zm27.381 0v4.457h2.2656v17.727h-2.2656v4.4961h19.758v-9.5566h-5.875v5.0605h-5.1758v-17.727h2.3066v-4.457h-11.014zm32.006 0v4.457h2.2676v17.262c0 3.1062 1.7483 4.9609 4.6777 4.9609h9.1484c2.9108 0 4.7188-1.9017 4.7188-4.9609v-17.262h2.2266v-4.457h-8.7891v22.184h-5.4199v-22.184h-8.8301zm36.535 0v4.457h2.2656v17.727h-2.2656v4.4961h8.0195v-16.877l7.5391 12.893 7.3926-12.947v16.932h8.4648v-4.4961h-2.2676v-17.727h2.2676v-4.457h-8.2305l-7.2402 12.982-7.623-12.982h-8.3223zm44.932 0v4.457h2.2656v17.727h-2.2656v4.4961h16.457c2.91 0 4.7168-1.9017 4.7168-4.9609v-4.8984c0-1.9735-0.8901-2.8294-3.5293-3.3945l0.0547-1.3926c3.0624-0.4054 3.4746-1.838 3.4746-3.1855v-3.8867c0-3.0608-1.8068-4.9609-4.7168-4.9609h-16.457zm34.83 0v4.457h2.2656v17.727h-2.2656v4.4961h11.055v-4.4961h-2.2656v-17.727h2.2656v-4.457h-11.055zm30.666 0-4.248 22.184h-2.0254v4.4961h8.0215l0.8496-6.8398h5.9805l0.89063 6.8398h8.1856v-4.4961h-1.8613l-4.209-22.184h-11.584zm4.9551 3.957 1.3926 0.002 1.9531 12.152h-5.3438l1.998-12.154zm-209.46 0.5h5.3398v17.727h-5.3398v-17.727zm147.8 0h5.7852v6.5527h-5.7852v-6.5527zm0 10.322h5.7852v7.4043h-5.7852v-7.4043z" fill="#99caea"/>
 </g>
</svg>
