<?xml version="1.0" encoding="UTF-8" standalone="no"?>
<!-- Created with Inkscape (http://www.inkscape.org/) -->

<svg
   xmlns:dc="http://purl.org/dc/elements/1.1/"
   xmlns:cc="http://creativecommons.org/ns#"
   xmlns:rdf="http://www.w3.org/1999/02/22-rdf-syntax-ns#"
   xmlns:svg="http://www.w3.org/2000/svg"
   xmlns="http://www.w3.org/2000/svg"
   version="1.1"
   width="564.21252"
   height="101.925"
   id="svg2"
   xml:space="preserve"><metadata
     id="metadata8"><rdf:RDF><cc:Work
         rdf:about=""><dc:format>image/svg+xml</dc:format><dc:type
           rdf:resource="http://purl.org/dc/dcmitype/StillImage" /><dc:title></dc:title></cc:Work></rdf:RDF></metadata><defs
     id="defs6" /><g
     transform="matrix(1.25,0,0,-1.25,0,101.925)"
     id="g10"><g
       transform="scale(0.1,0.1)"
       id="g12"><path
         d="m 385.949,615.055 c 0,-0.879 0,-2.617 0,-3.496 -1.758,-99.309 -81.906,-180.321 -181.211,-182.067 -0.871,0 -0.871,0 -0.871,0 -0.887,0 -1.75,0 -3.496,0 l -200.371,0 0,130.68 200.371,0 c 0.867,0 1.746,0 1.746,0 26.137,0.851 47.043,19.18 52.27,44.433 l -135.032,0 0,128.915 135.911,0 0,81.925 130.683,0 0,-70.578 43.555,0 0,70.578 130.684,0 0,-81.925 135.906,0 0,-128.915 -135.039,0 c 5.226,-25.253 26.133,-43.582 52.265,-44.433 0,0 0.871,0 1.75,0 l 200.379,0 0,-130.68 -200.379,0 c -1.75,0 -2.621,0 -3.488,0 0,0 0,0 -0.867,0 -99.328,1.746 -179.477,82.758 -181.211,182.067 0,0.879 0,2.617 0,3.496 l -43.555,0 z m 43.555,-414.68 c 0,0.879 0,2.598 0,3.477 1.734,99.328 81.883,180.343 181.211,182.089 0.867,0 0.867,0 0.867,0 0.867,0 1.738,0 3.488,0 l 200.379,0 0,-130.683 -200.379,0 c -0.879,0 -1.75,0 -1.75,0 -26.132,-0.879 -47.039,-19.168 -52.265,-44.434 l 135.039,0 0,-128.9295 -135.906,0 0,-81.8945 -130.684,0 0,70.5664 -43.555,0 0,-70.5664 -130.683,0 0,81.8945 -135.911,0 0,128.9295 135.032,0 c -5.227,25.266 -26.133,43.555 -52.27,44.434 0,0 -0.879,0 -1.746,0 l -200.371,0 0,130.683 200.371,0 c 1.746,0 2.609,0 3.496,0 0,0 0,0 0.871,0 99.305,-1.746 179.453,-82.761 181.211,-182.089 0,-0.879 0,-2.598 0,-3.477 l 43.555,0"
         id="path14"
         style="fill:#003399;fill-opacity:1;fill-rule:nonzero;stroke:none" /><path
         d="m 1160.82,81.7188 -136.13,0 0,651.5622 463.73,0 0,-115.25 -327.6,0 0,-147.019 286.77,0 0,-115.215 -286.77,0 0,-274.0782"
         id="path16"
         style="fill:#003399;fill-opacity:1;fill-rule:nonzero;stroke:none" /><path
         d="M 1948.68,223.277 C 1915.13,107.129 1818.92,69.0039 1736.34,69.0039 c -136.13,0 -240.48,65.3511 -240.48,264.1051 0,58.059 19.96,244.082 231.41,244.082 95.3,0 226.88,-45.375 226.88,-265.878 l 0,-22.696 -331.24,0 c 3.62,-36.289 10.88,-117.972 113.43,-117.972 35.38,0 71.7,18.148 81.68,52.632 l 130.66,0 z m -125.21,147.918 c -7.27,78.059 -57.18,101.633 -98.02,101.633 -59.89,0 -91.66,-38.117 -98.92,-101.633 l 196.94,0"
         id="path18"
         style="fill:#003399;fill-opacity:1;fill-rule:nonzero;stroke:none" /><path
         d="m 2019.46,564.508 121.63,0 0,-83.508 1.81,0 c 26.31,48.996 55.35,96.191 132.49,96.191 8.18,0 16.34,-0.898 24.51,-1.816 l 0,-128.848 c -10.9,1.797 -24.51,1.797 -36.31,1.797 -98.91,0 -117.05,-61.687 -117.05,-115.215 l 0,-251.3902 -127.08,0 0,482.7892"
         id="path20"
         style="fill:#003399;fill-opacity:1;fill-rule:nonzero;stroke:none" /><path
         d="m 3055.95,81.7188 -127.05,0 0,293.1212 c 0,71.687 -31.77,95.273 -68.99,95.273 -63.54,0 -86.23,-41.742 -86.23,-98.918 l 0,-289.4762 -127.05,0 0,290.4062 c 0,40.82 0,97.988 -76.22,97.988 -59.89,0 -78.96,-41.742 -78.96,-94.386 l 0,-294.0082 -127.02,0 0,482.7892 121.57,0 0,-70.805 1.83,0 c 16.33,31.762 51.74,83.488 137.04,83.488 69.87,0 101.64,-25.414 134.33,-77.125 16.32,23.59 51.72,77.125 128.85,77.125 94.38,0 167.9,-55.339 167.9,-161.531 l 0,-333.9412"
         id="path22"
         style="fill:#003399;fill-opacity:1;fill-rule:nonzero;stroke:none" /><path
         d="m 3264.38,621.676 -127.02,0 0,117.972 127.02,0 0,-117.972 z m 0,-57.168 0,-482.7892 -127.02,0 0,482.7892 127.02,0"
         id="path24"
         style="fill:#003399;fill-opacity:1;fill-rule:nonzero;stroke:none" /><path
         d="m 3351.23,81.7188 127.051,0 0,651.563 -127.051,0 0,-651.563 z"
         id="path26"
         style="fill:#003399;fill-opacity:1;fill-rule:nonzero;stroke:none" /><path
         d="m 3962.88,176.094 c 0,-57.168 12.73,-69.864 28.15,-75.332 l 0,-19.0432 -137.06,0 c -7.24,22.6952 -9.06,29.9412 -11.77,57.1682 -29.07,-29.942 -69.91,-69.8831 -156.09,-69.8831 -72.62,0 -147.03,40.8401 -147.03,140.6601 0,94.395 59.91,142.488 140.66,154.285 l 114.38,17.246 c 19.96,2.727 44.45,10.899 44.45,38.106 0,53.527 -50.83,56.25 -83.5,56.25 -63.52,0 -74.4,-39.024 -78.04,-67.129 l -122.5,0 c 14.5,147.91 117.05,168.769 215.96,168.769 68.08,0 192.39,-20.859 192.39,-139.734 l 0,-261.363 z m -124.31,140.648 c -12.71,-9.969 -33.59,-18.144 -86.24,-26.297 -47.17,-8.183 -86.21,-19.953 -86.21,-72.597 0,-44.489 34.51,-58.082 59,-58.082 56.28,0 113.45,36.293 113.45,95.277 l 0,61.699"
         id="path28"
         style="fill:#003399;fill-opacity:1;fill-rule:nonzero;stroke:none" /><path
         d="m 4171.51,501.879 1.81,0 c 19.97,30.859 58.09,75.312 139.75,75.312 106.21,0 200.59,-81.679 200.59,-248.632 0,-132.5 -59.92,-259.5551 -203.28,-259.5551 -52.64,0 -108.91,19.082 -139.79,73.5161 l -1.8,0 0,-60.8012 -124.3,0 0,651.5622 127.02,0 0,-231.402 z m 103.45,-34.481 c -87.12,0 -108.89,-78.046 -108.89,-155.187 0,-71.68 31.77,-138.852 112.54,-138.852 81.67,0 104.37,88.93 104.37,146.137 0,76.192 -27.23,147.902 -108.02,147.902"
         id="path30"
         style="fill:#003399;fill-opacity:1;fill-rule:nonzero;stroke:none" /></g></g></svg>